<svg xmlns="http://www.w3.org/2000/svg" data-name="Layer 2" viewBox="0 0 32 32"><path d="M16,1.5A14.49,14.49,0,0,0,4.77,25.16l.5.6,0,0a14.41,14.41,0,0,0,21.42,0l0,0,.5-.6A14.49,14.49,0,0,0,16,1.5Zm0,1A13.49,13.49,0,0,1,26.92,23.92s0,0,0-.05l-.17-.28-.29-.46a2.83,2.83,0,0,0-.2-.28c-.1-.14-.19-.28-.3-.42l-.22-.28c-.11-.13-.21-.26-.32-.38l-.25-.27c-.11-.12-.22-.24-.34-.35s-.18-.17-.27-.26l-.35-.32-.29-.24L23.53,20l-.31-.22-.39-.27-.32-.2-.4-.24-.34-.18-.42-.21L21,18.56l-.44-.18-.35-.14-.46-.15L19.41,18l-.48-.12-.36-.09-.5-.09-.34-.06-.57-.06-.29,0q-.44,0-.87,0t-.87,0l-.29,0-.57.06-.34.06-.5.09-.36.09-.48.12-.35.11-.46.15-.35.14-.44.18-.34.16-.42.21-.34.18-.4.24-.32.2-.39.27L8.47,20l-.37.29-.29.24-.35.32c-.09.09-.19.17-.27.26s-.23.23-.34.35l-.25.27c-.11.12-.21.25-.32.38l-.22.28c-.11.14-.2.28-.3.42a2.83,2.83,0,0,0-.2.28l-.29.46-.17.28s0,0,0,.05A13.49,13.49,0,0,1,16,2.5Zm0,27A13.42,13.42,0,0,1,5.76,24.78l.11-.23c.07-.12.13-.24.2-.35l.21-.35.23-.33.23-.33L7,22.87l.26-.31c.09-.1.17-.2.26-.29l.28-.3.28-.27a2.61,2.61,0,0,1,.3-.27l.29-.26A3.92,3.92,0,0,1,9,20.92a3.55,3.55,0,0,1,.31-.23l.33-.23.32-.22.36-.2.33-.19.37-.18.34-.17.39-.16.35-.14.41-.13.34-.12.43-.11.35-.08.46-.09.33-.05c.17,0,.35,0,.52-.06l.28,0q.41,0,.81,0t.81,0l.28,0c.17,0,.35,0,.52.06l.33.05.46.09.35.08.43.11.34.12.41.13.35.14.39.16.34.17.37.18.33.19.36.2.32.22.33.23a3.55,3.55,0,0,1,.31.23,3.92,3.92,0,0,1,.32.25l.29.26a2.61,2.61,0,0,1,.3.27l.28.27.28.3c.09.09.17.19.26.29l.26.31.24.32.23.33.23.33.21.35c.07.11.13.23.2.35l.11.23A13.42,13.42,0,0,1,16,29.5Z"/><path d="M16,15.5A4.5,4.5,0,1,0,11.5,11,4.51,4.51,0,0,0,16,15.5Zm0-8A3.5,3.5,0,1,1,12.5,11,3.5,3.5,0,0,1,16,7.5Z"/></svg>