<?xml version="1.0" encoding="utf-8"?>
<!-- Generator: Adobe Illustrator 21.0.0, SVG Export Plug-In . SVG Version: 6.00 Build 0)  -->
<svg version="1.1" id="Layer_1" xmlns="http://www.w3.org/2000/svg" xmlns:xlink="http://www.w3.org/1999/xlink" x="0px" y="0px"
	 viewBox="0 0 292 298" style="enable-background:new 0 0 292 298;" xml:space="preserve">
<style type="text/css">
	.st0{fill:#FFFFFF;stroke:#A14974;stroke-width:0.7987;stroke-miterlimit:3.8636;}
	.st1{fill:#FFFFFF;stroke:#000000;stroke-width:0.4218;stroke-miterlimit:3.8636;}
	.st2{fill:#7A003C;}
	.st3{fill:#FFDF55;stroke:#000000;stroke-width:0.4218;stroke-miterlimit:3.8636;}
	.st4{fill:none;}
	.st5{fill:#FFE656;stroke:#A14974;stroke-width:0.7987;stroke-miterlimit:3.8636;}
	.st6{fill:#FFFFFF;stroke:#A14974;stroke-width:0;stroke-miterlimit:3.8636;}
	.st7{fill:#FFFFFF;stroke:#000000;stroke-width:0.3587;stroke-miterlimit:3.8636;}
	.st8{fill:none;stroke:#000000;stroke-width:0.3587;stroke-miterlimit:3.8636;}
	.st9{stroke:#000000;stroke-width:0;stroke-miterlimit:3.8636;}
	.st10{fill:#00A1E4;stroke:#00A1E4;stroke-width:0;stroke-miterlimit:3.8636;}
	.st11{fill:#FFFFFF;stroke:#000000;stroke-width:0.2664;stroke-miterlimit:3.8636;}
	.st12{fill:#368E47;stroke:#000000;stroke-width:0.1406;stroke-miterlimit:3.8636;}
	.st13{fill:#FFFFFF;}
</style>
<g>
	<g>
		<path class="st0" d="M135.6,123.9"/>
		<path class="st1" d="M33.1,124c0-56.6,45.8-102.4,102.4-102.4c56.6,0,102.4,45.9,102.4,102.4c0,56.6-45.8,102.4-102.4,102.4
			C78.9,226.4,33.1,180.6,33.1,124z"/>
	</g>
	<path class="st2" d="M72,116.3c0-1.1,0.1-2.1,0.2-3.1l-3,6.4l-1.8-6.4l-2.1,6.4l-1.9-6.4l-2,6.3l-2.4-6.3l-2,6.3l-2.2-6.3l-1.9,6.3
		l-2.1-6.3l-1.9,6.4l-2.3-6.4l-2,6.4l-2.1-6.4l-2,6.4l-2.2-6.4l-1.8,6.4l-2-6.3c-0.8,3-0.6,7.2-0.7,10.2
		C32.9,181.5,80.2,226.1,136.7,226c53-0.1,101-44.1,100.7-102.4c0-3-0.8-10.4-0.8-10.4l-1.9,6.4l-2-6.4l-2.1,6.4l-2-6.4l-2,6.4
		l-2.1-6.4l-2,6.4l-2.1-6.4l-2.2,6.4l-2.1-6.4l-2.1,6.4l-2-6.4l-2,6.4l-2.1-6.4l-1.9,6.4l-2.2-6.4l-1.8,6.4l-2.8-6.3
		c0,0,0.5,9.8,0.4,17.4c0,0.9-0.3,1.5-0.3,2.3c0,0.4-0.3,1.1-0.3,1.4c-1.1,4.8-2,10.1-3.9,14.7C190,159,182,168.2,176.1,173
		c-5.4,4.4-13.5,10.6-23.6,12.7c-10.1,2.1-13.8,3.2-25.4,1.6c-11.6-1.7-22.8-7.1-29.1-11.7c-6.3-4.6-9.8-9.3-13.4-13.3
		c-3.5-4-8.4-13.2-9.7-17.3c-1.3-4.3-2.3-9.5-2.9-14.2c-0.3-2.2-0.5-4.1-0.1-5.9C72.3,123.1,71.9,119.5,72,116.3z"/>
	<path class="st3" d="M72,123.9c0-35.1,28.5-63.6,63.6-63.6c35.1,0,63.6,28.5,63.6,63.6c0,35.1-28.5,63.6-63.6,63.6
		C100.5,187.5,72,159.1,72,123.9z"/>
	<path class="st2" d="M106.7,121.8c0,0-1.2,0.6-1.8,1c-0.6,0.4-1.9,1.1-1.9,1.1s-0.2,1.1,0.1,1.5c0.2,0.4,1.2,0.7,1.2,1.2
		s-0.6,5.2-0.9,6.6c-0.1,0.5,0.1,0.8,0.2,1.2c0.2,0.5,0.3,0.2,0.8,0.8c0.5,0.6,0.6,1.8,0.7,2.8c0.1,0.7,1.1,2.6,2.7,3.1
		c1.2,0.3,2.6,0.1,4.9-0.9c1.9-0.8,4.1-0.9,6-0.5c2,0.5,2.8,1.4,5.3,0.9c1.4-0.3,3.6-1.7,5.3-1.9c1.8-0.2,2,0.2,2,0.2
		s0.8-1.6,1.4-4.4c0.3-1.4,0.4-3.7,0.4-3.7s-2.7-6.2-4.8-5.8c-1.9,0.4-5.6,2.8-8.7,4.7c-2.8,1.7-3.9,2.6-5.5,4
		c-0.8,0.6-2.5,1.8-4.8,1.4c-2.1-0.3-2.4-0.3-3.6-1.2c-1.2-0.9-1.8-1-1.8-1s0.2-1,0.5-1.3c0.2-0.3,2.1-1.7,2.8-2.3
		c1-0.8,1.7-1.3,1.7-1.3s-0.3-1-0.7-1.8c-0.4-0.8-0.3-0.2-0.6-1.7C107,123.1,106.7,121.8,106.7,121.8z"/>
	<path class="st2" d="M169,140.3c0,0-2.7,0-4.6,0c-2.1,0-1.7-0.9-4.6,0c-2.9,0.8-1.8,0.7-4.7,1c-2.9,0.3-2.5,0-4.8-0.3
		c-2.3-0.2-2.1-0.9-4.5-0.9c-2.8,0-3.8,0.5-3.8,0.5s0.2-2.1,1.5-2.7c1.3-0.5,1.2-1.1,4.1-1.1c2.9,0,4.2-0.2,4.8-0.4
		c0.8-0.2,2.6-0.1,2.3-2.6c-0.4-2.7-2.4-12.1-2.5-14.7c-0.1-1.8-1-13.1-1-13.1s0.4-2.4,0.5-3.1c0.1-0.7,0.8-3,0.8-3s1.4,0.1,1.7,0.7
		c0.2,0.6,1.3,0.8,0.9,1.7c-0.6,1.3-0.6,6.9-0.2,10.6c0.4,3.1,0.9,7.1,1.3,9.6c0.5,2.9,2,10.2,3,11.5c0.6,0.8,1,0.4,1.5,0.1
		c0.5-0.3,1.2-5.9,1.4-8.3c0.2-2-0.1-7.6-0.2-8.9c-0.2-4.7-1.6-9.7-3.9-13.5c-0.7-1.2,0,0.1,0.1-0.7c0.1-0.8,0.1-1.3,0.1-1.3
		s0.8,0.1,1.5,0.2c0.7,0.1,0.8,0.2,0.8,0.2s1.9,2.3,3.1,6.1c0.9,2.8,2.1,6.9,1.9,12c-0.1,4-0.5,13.7-0.5,13.7s0.7,0.9,2.2,1.1
		c1.5,0.2,5.6-0.1,8.4,0.4l-5.9,5.9L169,140.3z"/>
	<path class="st4" d="M107.7,70.9c0,0,4.7,6.9,12.2,18.4c2.4,3.7,11,15.3,11.5,18.3c0.1,0.7,0.6,15.7,0.6,15.7l0.1,2
		c0,0-3.7-4.7-11.4-3c-4.5,1-10.2,4.6-10.3,11.1c0,0.5-4.3-5.4-5.4-14.1c-0.4-3.3-0.7-16.3-0.7-18.6c-0.1-5.3,2.9-21.9,3.7-25.3
		c0.2-1.1-1-3.3-0.7-4C107.5,70.9,107.7,70.9,107.7,70.9z"/>
	<path class="st5" d="M135.6,123.9"/>
	<path class="st6" d="M100.3,140.3c0,0,3.9-1.3,5.4-0.2c1.1,0.8,2.5,1.9,3.6,1.5c1.1-0.4,5.4-2,7-2c2.8,0,5,1.5,7,1.2
		c1.3-0.2,5.4-2.7,8.4-1.9c2,0.5,5.2,1.6,6.7,1.6c1.6,0.1,3.8-0.4,5.9-0.6c3.3-0.3,7.6,1.3,10.7,1c3.2-0.3,7.2-3,14.9-0.6
		c0.2,0.1-3.7,3.3-8.6,7c-4.2,3.1-9.3,6.2-11.2,7.5c-5.3,3.6-14.9,8.1-14.9,8.1s-10.2-5.1-14.8-7.9c-3.2-2-10.9-7.3-13.7-9.4
		C104.8,144.1,100.3,140.3,100.3,140.3z"/>
	<path d="M116.9,131.5c0,0-0.5-2.2-0.7-2.9c-0.2-0.7-0.1-3-0.1-3L115,127c0,0,1,5.2,0.6,5.4C115.2,132.6,116.9,131.5,116.9,131.5z"
		/>
	<path d="M119.7,123.2c0,0,0.3,1.7,0.5,3c0.1,0.7,0.7,2.5,0.7,2.5l-1.2,0.8c0,0-0.5-2-0.6-2.8c-0.1-0.8-0.5-2.8-0.5-2.8L119.7,123.2
		z"/>
	<path d="M124.6,121.8c0,0,0.2,1.3,0.2,2.3c0,1,0.3,2.1,0.3,2.1l-1.2,0.8c0,0-0.1-1.9-0.2-2.5c-0.1-0.6-0.5-2.3-0.5-2.3L124.6,121.8
		z"/>
	<path class="st7" d="M109.5,70.9c0,0,4.7,6.9,12.2,18.4c2.4,3.7,11,15.3,11.5,18.3c0.1,0.7,0.6,15.7,0.6,15.7l0.1,2
		c0,0-3.7-4.7-11.4-3c-4.5,1-10.2,4.6-10.3,11.1c0,0.5-4.3-5.4-5.4-14.1c-0.4-3.3-0.7-16.3-0.7-18.6c-0.1-5.3,2.9-21.9,3.7-25.3
		c0.3-1.1-1-3.3-0.7-4C109.3,70.9,109.5,70.9,109.5,70.9z"/>
	<path class="st8" d="M131.8,127.7c0,0,5.1-2.3,8.3-3.1"/>
	<path class="st9" d="M131.7,123.1c0,0,0.1,0.3,0.1,1.3c0,1,0.1,2.9,0.1,2.9l-1.4-1c0,0,0.4-1.4,0.3-2c-0.1-0.6-0.3-1.6-0.3-1.6
		L131.7,123.1z"/>
	<path class="st8" d="M128.6,125.4c0,0-0.5,3-0.5,4.7c0,1.7-0.5,5.9-0.7,7c-0.2,1.1-1.1,2.6-1.1,2.6"/>
	<g>
		<path class="st10" d="M103.7,142.7c0,0,4.4,1.6,6.5,1c1.3-0.4,2.6-1.8,5.1-1.8c2.5,0,3.5,1.3,6.9,1.5c3.4,0.2,4.4-1.3,5.4-1.6
			c1.1-0.3,2.4-1,5.3,0c2.2,0.7,3.6,1.7,5.2,1.7c1.6,0,4.7-1,5.8-1.4c1.2-0.4,2.8-0.3,4.2,0c1.4,0.3,2.9,0.9,4.9,1
			c2.8,0.1,7.8-1.8,9.1-1.8c1.6,0,4.3,1,4.3,1l-0.7,0.7c0,0-1.9-1-3.6-1c-2.2,0-4.7,1.8-8,2c-2.7,0.2-5.7-1.7-8.8-1.4
			c-1.3,0.1-5,1.8-6.8,1.8c-1.8,0-6.7-2.5-8-2.5c-2.6,0-4.2,2.1-7,2.4c-2.5,0.3-5.9-1.7-8.6-1.6c-2,0.1-3.1,1.6-4,1.9
			c-2.6,0.8-5.7-0.4-5.7-0.4L103.7,142.7z"/>
		<path class="st10" d="M109.2,146.7c1.3-0.4,3.7-2.3,6.2-2.3c2.5,0,3.5,1.3,6.9,1.5c3.4,0.2,4.4-1.3,5.4-1.6c1.1-0.3,2.4-1,5.3,0
			c2.2,0.7,3.6,1.7,5.2,1.7c1.6,0,4.7-1,5.8-1.4c1.2-0.4,2.8-0.3,4.2,0c1.4,0.3,2.9,0.8,4.9,1c4,0.4,7.8-2.7,10.7-1.6
			c0.6,0.2,0.3,0.8-0.3,0.8c-2.2,0-6,1.5-9.3,1.7c-2.7,0.2-5.7-1.7-8.8-1.4c-1.3,0.1-5,1.8-6.8,1.8c-1.8,0-6.7-2.5-8-2.5
			c-2.6,0-4.2,2.1-7,2.4c-2.5,0.3-5.9-1.7-8.6-1.6c-2,0.1-4.4,1.9-5.2,2.3L109.2,146.7z"/>
		<path class="st10" d="M111.7,148.5c1.3-0.4,1.2-1.1,3.7-1.3c3.5-0.3,3.5,1.3,6.9,1.5c3.4,0.2,4.4-1.3,5.4-1.6c1.1-0.3,2.4-1,5.3,0
			c2.2,0.7,3.6,1.7,5.2,1.7c1.6,0,4.7-1,5.8-1.4c1.2-0.4,2.8-0.3,4.2,0c1.4,0.3,2.9,0.9,4.9,1c2.8,0.1,7.3-1.9,8.6-1.9l-1.1,1
			c-2.2,0-3.5,1.5-6.8,1.8c-3,0.3-5.3-1.7-8.4-1.4c-1.3,0.1-5,1.8-6.8,1.8c-1.8,0-6.7-2.5-8-2.5c-2.6,0-4.2,2.1-7,2.4
			c-2.5,0.3-5.9-2.1-8.6-1.6c-1.6,0.3-1.9,1-2.8,1.2L111.7,148.5z"/>
		<path class="st10" d="M113.8,150.1c3.6-1,5.1,1,8.5,1.2c3.4,0.2,4.4-1.3,5.4-1.6c1.1-0.3,2.4-1,5.3,0c2.2,0.7,3.6,1.7,5.2,1.7
			c1.6,0,4.7-1,5.8-1.4c1.2-0.4,2.8-0.3,4.2,0c1.4,0.3,4.7,1.1,6.7,1.2l-0.7,0.7c-2.8-0.1-5.7-1.7-8.8-1.4c-1.3,0.1-5,1.8-6.8,1.8
			c-1.8,0-6.7-2.5-8-2.5c-2.6,0-4.2,2-7,2.4c-3.7,0.5-5.9-2.1-8.7-1.1L113.8,150.1z"/>
		<path class="st10" d="M118,152.9c2.5,0,0.8,0.7,4.2,0.9c3.4,0.2,4.5-1.3,5.5-1.6c1.1-0.3,2.4-1,5.3,0c2.2,0.7,3.6,1.7,5.2,1.7
			c1.6,0,4.7-1,5.8-1.4c1.2-0.4,2.8-0.3,4.2,0c1.4,0.3,1.4,0.4,3.4,0.7c0.6,0.1-0.4,0.6-0.4,0.6c-2.3,0-2.7-1.1-5.8-0.8
			c-1.3,0.1-5,1.8-6.8,1.8c-1.8,0-6.7-2.5-8-2.5c-2.6,0-4.2,2.1-7,2.4c-2.5,0.3-2.9-0.9-4.3-0.9L118,152.9z"/>
		<path class="st10" d="M123.3,156.3c3.3,0,3.7-1,4.7-1.5c1-0.5,2.1-1.1,5.1-0.1c2.2,0.7,3.6,1.7,5.2,1.7c1.6,0,4.7-1,5.8-1.4
			c1.2-0.4,3.3-0.2,4.8,0.1l-0.9,0.7c-2.6-0.9-7.5,1.6-9.3,1.6c-1.8,0-6.7-2.5-8-2.5c-2.9,0-2.8,1.8-5.9,2.1L123.3,156.3z"/>
		<path class="st10" d="M126.2,158.3c1.7-0.4,2-1,3-1.3c0.8-0.2,0.9-0.4,3.8,0.6c2.2,0.7,3.6,1.7,5.2,1.7c1.6,0,4.7-1.9,5.8-1.4
			c0.2,0.1-0.8,0.7-0.8,0.7c-1.9,0.1-3,1.4-5,1.4c-2.2,0-6.8-2.6-8.1-2.3c-2.5,0.5-1.8,0.6-2.9,1.1L126.2,158.3z"/>
		<path class="st10" d="M129.1,159.4c0.6-0.2,0.5-0.6,3.4,0.4c2.2,0.7,3.6,1.7,5.2,1.7l-0.8,0.4c-1.8,0-5.1-2-6.9-2L129.1,159.4z"/>
		<path class="st10" d="M100.3,140.3c0,0,3.8-1.4,5.2-0.5c1.1,0.7,1.7,1.5,3.3,1.4c1.9-0.1,3.6-1.5,6.3-1.8c1.2-0.1,2.8,0.1,4.5,0.5
			c1.8,0.5,3.1,1,5.9-0.1c1.8-0.7,3.3-1.5,6.3-1c3,0.5,4.9,1.6,6.7,1.6c1.9,0,6.4-1.2,9.2-0.6c2.3,0.5,4.7,1.1,6.6,1
			c2.1-0.1,5.8-1.3,8.1-1.6c1.9-0.2,5.1,0.3,6.3,0.7c1.2,0.4,1.4,0.5,1.4,0.5l-1.5,0.3c0,0-0.6-0.1-1.6-0.4c-1-0.3-2.2-1-4.6-0.5
			c-2.4,0.5-6,1.6-8.1,1.6c-2.6,0-5.5-0.4-7.5-0.9c-2-0.5-6.8,0.8-8.5,0.7c-2.5-0.1-5.3-2-8.9-1.8c-1.9,0.1-3.7,1.6-5.9,1.8
			c-3.1,0.3-3.4-0.4-5.4-0.7c-1.9-0.3-3.2-0.7-5.4,0.2c-2.1,0.9-3.4,1.2-4.2,1.2c-0.8,0-1.8-0.3-2.6-0.9c-1-0.7-2.3-0.5-2.7-0.6
			c-0.5-0.1-1.8,0.6-1.8,0.6L100.3,140.3z"/>
	</g>
	<g>
		<path class="st11" d="M82.2,120.4c0,0,2.8,7.7,7.7,13.6c3.9,4.7,7.8,8.8,14.1,14c7.5,6.2,22,16.4,31.2,19.5
			c5.4,1.8,11.5,4.2,11.5,4.2c0.7,0.5,0.9,1.1,0.7,1.8c-0.2,0.7-1,1.3-1.7,2.2c-0.7,0.9-0.8,1.7-0.4,2.2c0.4,0.5,1,1.1,2.4,0.6
			c1.8-0.7,1.6-1.4,2.2-3c0.6-1.6,0.5-3.1,0.5-3.1s1.1-0.3,1.9,0.1c0.9,0.5,2.2,0.4,3.8,0.6c1.5,0.2,2.6-0.5,3,0.1
			c0.4,0.6,0.8,1.5,1.8,1.6c1.3,0.2,2.4,0.1,3-0.8c0.7-1,0.8-2.5-0.2-3.7c-0.8-0.9-2.4-1.2-5-1.7c-2.7-0.5-4.3-0.2-5-0.7
			c-0.7-0.5-1.1-0.8-1.1-1.4c0.1-0.6-0.1-1.1,0.5-2.1c0.6-0.9,0.8-1.2,1.4-1.8c0.6-0.6,0.3-1.7-0.4-2.1c-0.7-0.5-2.6-0.5-3.3,0.8
			c-0.7,1.2-0.9,1.6-1,3.2c-0.1,1.6,0,1.5-0.2,2.1c-0.3,1.2-1.3,1.1-3.5,0.4c-8.1-2.5-13.4-4.9-21.3-9.5
			c-11.6-6.8-24-15.6-33.1-25.4C87.5,127.7,82.2,120.4,82.2,120.4z"/>
		<path class="st11" d="M188.3,120.4c0,0-2.8,7.7-7.7,13.6c-3.9,4.7-7.8,8.8-14.1,14c-7.5,6.2-22,16.4-31.2,19.5
			c-5.4,1.8-11.5,4.2-11.5,4.2c-0.7,0.5-0.9,1.1-0.7,1.8c0.2,0.7,1,1.3,1.7,2.2c0.7,0.9,0.8,1.7,0.4,2.2c-0.4,0.5-1,1.1-2.4,0.6
			c-1.8-0.7-1.6-1.4-2.2-3c-0.6-1.6-0.5-3.1-0.5-3.1s-1.1-0.3-1.9,0.1c-0.9,0.5-2.2,0.4-3.8,0.6c-1.5,0.2-2.6-0.5-3,0.1
			c-0.4,0.6-0.8,1.5-1.8,1.6c-1.3,0.2-2.4,0.1-3-0.8c-0.7-1-0.8-2.5,0.2-3.7c0.8-0.9,2.4-1.2,5-1.7c2.7-0.5,4.4-0.2,5-0.7
			c0.7-0.5,1.1-0.8,1.1-1.4c-0.1-0.6,0.2-1.1-0.5-2.1c-0.6-0.9-0.8-1.2-1.4-1.8c-0.6-0.6-0.3-1.7,0.4-2.1c0.7-0.5,2.6-0.5,3.3,0.8
			c0.7,1.2,0.9,1.6,1,3.2c0.1,1.6,0,1.5,0.2,2.1c0.3,1.2,1.3,1.1,3.5,0.4c8.1-2.5,13.4-4.9,21.3-9.5c11.6-6.8,24-15.6,33.1-25.4
			C182.9,127.7,188.3,120.4,188.3,120.4z"/>
	</g>
	<path class="st12" d="M168.8,88.8c0.9,0.2,1.8,0.5,1.8,0.5s-0.5-2.1-1.7-3.3c-1.1-1.2-1.9-1.8-3.9-1.6c-2,0.2-3,0.8-3,0.8
		s0.5-0.8,1.5-1.5c0.9-0.7,2-0.5,3-0.2c1,0.2,2.2,0.5,2.2,0.5s-2.1-2.3-3.5-3c-1.4-0.7-2.8-0.8-4-0.3c-1.2,0.5-2.5,2.1-3.8,3.4
		c-1.3,1.4-3,2.4-3,2.4s0.1-0.5,0.2-0.9c0.2-0.4,1.1-1.1,2.1-2.4c0.9-1.4,0.7-1.3,1.1-2.7c0.4-1.4,0.5-1.1,1.2-1.6
		c0.7-0.5,3.1,0.8,3.1,0.8s-0.2-0.8-0.7-1.5c-0.5-0.8-1.8-2-3.4-2.5c-1.6-0.5-2.1,0.8-2.5,1.5c-0.5,0.6-0.7,0.2-0.7,0.2
		s-0.2-1.2-1.1-1.8c-0.9-0.6-2.6,0-3,0.5c-0.6,0.8,0,2,0,2.9c0,0.9-0.2,2-0.3,2.3c-0.1,0.3-0.2,0.2-0.6-0.2
		c-0.4-0.5-0.3-0.9-0.4-2.2c-0.1-1.3,0.2-1.2,0.2-2.2c0.1-1-0.4-0.9-0.7-0.8c-1.8,0.2-2.8,1.1-3,1.9c-0.2,0.6,0.2,0.5-0.8,0.7
		c-1,0.2-2.2,0.6-3.8,2c-1.4,1.3-2.2,2.8-2.4,4.3c-0.1,1.1,0.8,1.4,0.8,1.4s1.5-1.9,2.4-2.8c0.9-0.8,1.8-0.9,2.4-0.8
		c0.6,0.1,0.6,0.3,0.8,0.6c0.2,0.3-0.1,0.6-0.1,0.6s-1.7,0.1-3.4,1.1c-0.6,0.4-1.2,0.8-2.1,1.5c-0.5,0.4-1,1.2-2,2.6
		c-1.7,2.5-1,5-1.1,5.9c-0.1,0.8,0.8,2,1.3,2.3c0.5,0.3,0.5,0.5,0.5,1c0.3,1.8,1.7,2.4,1.7,2.4s-0.5,2.4-0.3,3.8
		c0.2,1.4,0.5,1.8,1.8,3.1c1.3,1.3,2.1,1.3,2.1,1.3l-0.2-1.8c-0.3-2,0-2.7,0.2-3.5c0.2-0.8,1-0.8,1-0.8s0.2,2.1,0.8,4.2
		c0.6,2.1,1.4,2.7,1.4,2.7s0.6-4.7,0.7-6c0.2-2.4,1.1-4.6,1.5-6c0.2-0.7,1.5-0.3,1.1,0.3c-0.4,0.6-0.8,6-0.3,7.9
		c0.5,1.8,1.5,2.1,1.5,2.1s0.1-0.2,0.2-1.1c0.2-0.9,0.8-6.4,1.3-6.3c0.5,0.1,1.3,0.7,2.5,2.3c1.2,1.6,0.2,4.6,0.7,4.2
		c1-0.8,2.2-2.4,2.5-3.9c0.1-0.9,0-1.3,0-1.3c0.2,0.1,0.7,0.2,1.8,0.5c1.5,0.4,0.6-0.5,0.7-1.5c0.1-0.9-0.2-1.7,0.2-1.6
		c0.4,0.1,2.4,1.4,2.9,2.6c0.5,1.2,0.7,4.3,0.7,4.3s1.2-0.9,1.6-2.1c0.4-1.1,0.4-2.4,0.5-3c0.1-0.4,0.7,0.1,0.9-0.3
		c0.2-0.5,0.6-4.4,0.3-5.7c-0.3-1.4-0.8-2.1-1.8-3.3c-1.1-1.2-2.7-1.5-2.7-1.5s1.4-1.1,2.8-1.3C167.6,88.2,167.9,88.5,168.8,88.8z
		 M142.6,89.6c-0.8,0.4-1.1,0.6-1.3,0.8c-0.2,0.2-0.4,0.5-0.8,1.1c-0.6,0.9-1.8,2.8-1.8,2.8s-0.2-0.5-0.1-1.7
		c0.2-1.1,0.5-2.6,1.4-3.3c0.9-0.7,3.8-1.3,4.6-0.8C145.2,88.8,144.2,88.8,142.6,89.6z M156.7,89.7c0,0-0.6-1.6,2.1-3.4
		c0.8-0.5,2.4-0.9,1.5,0c-0.3,0.3-1,0.8-1.8,1.7C157.8,88.9,156.7,89.7,156.7,89.7z M166.1,97.3c0.2,1,0.1,1.6,0.1,1.6
		s-0.4-0.9-1.9-2.5c-1.1-1.2-2-1.5-3.1-1.7c-1.2-0.2-2-0.5-2-0.5s-0.4-1,0.6-1.1c1-0.1,1.8-0.2,3.6,0.9
		C165.1,95.2,165.9,96.3,166.1,97.3z"/>
	<g>
		<path class="st13" d="M75.9,163.2l2.4,5.8l0.8-0.2c0.3-0.1,0.5-0.1,0.6-0.1c0.1,0,0.2,0,0.2,0.1C80,168.9,80,169,80,169
			c0,0.1,0,0.2-0.1,0.2c-0.1,0.1-0.3,0.2-0.7,0.2l-5.3,1.2l1.5,1.6c0.5,0.5,0.9,1.2,1.3,2c0.4,0.8,0.7,1.6,0.8,2.4
			c0.1,0.8,0,1.5-0.2,2.2c-0.2,0.7-0.6,1.3-1.1,1.8c-1,0.9-2.4,1.4-4.1,1.4c-1.7,0-4.1-0.6-7.1-1.8c-0.4-1.1-0.8-2.2-1.4-3.6
			c-2.5-1.1-4.3-2.2-5.3-3.4c-0.7-0.8-1.1-1.7-1.2-2.5c0-0.8,0.2-1.4,0.7-1.8c0.5-0.5,1.2-0.6,2.1-0.4c0.9,0.2,1.8,0.8,2.8,1.9
			c0.4,0.4,0.8,1,1.2,1.7l1.9-0.5l-1.3-1.3c-0.3-0.3-0.7-0.8-1.1-1.5c-0.4-0.7-0.7-1.3-0.8-1.9c-0.1-0.6-0.1-1.1,0.1-1.6
			c0.2-0.5,0.4-0.9,0.8-1.2c0.6-0.5,1.2-0.8,2-0.8c0.5,0,1.1,0.2,1.9,0.6l0.1-0.1c0.6-0.5,1.5-0.9,2.7-1.1
			C71.7,162.7,73.5,162.9,75.9,163.2z M76,169.5c-0.4-1.5-0.8-2.6-1.1-3.3c-0.3-0.7-0.7-1.3-1.1-1.8c-0.5-0.6-1.1-1-1.8-1
			c-0.7-0.1-1.2,0.1-1.7,0.5c-0.4,0.4-0.7,0.9-0.7,1.5c0,0.6,0.3,1.2,0.9,1.9c0.4,0.4,1.3,1.4,2.9,2.8L76,169.5z M70.7,170.7
			c-0.8-0.7-1.6-1.5-2.3-2.3c-0.8-0.9-1.2-1.6-1.3-2.2c-0.1-0.6-0.1-1.1,0.2-1.7c-0.7-0.2-1.3-0.1-1.7,0.3c-0.4,0.4-0.6,0.8-0.5,1.4
			c0.1,0.8,0.6,1.8,1.7,2.9c0.5,0.5,1.1,1.2,1.9,2L70.7,170.7z M69.2,171.7c1.5,1.4,2.6,2.4,3.1,3c0.7,0.8,1.1,1.6,1.1,2.4
			c0,0.8-0.2,1.4-0.7,1.9c-0.4,0.4-1.1,0.6-1.9,0.6c-0.8,0-2.1-0.5-3.8-1.3l1.1,2.5c1.3,0.4,2.4,0.5,3.4,0.4c1-0.1,1.9-0.5,2.6-1.1
			c0.5-0.4,0.8-1,1-1.7c0.2-0.7,0.2-1.5-0.1-2.3c-0.3-0.9-0.7-1.7-1.4-2.5c-0.6-0.6-1.3-1.4-2.3-2.3L69.2,171.7z M64.3,172.8
			c0.4,0.8,0.8,1.4,1,1.9c0.3,0.5,0.7,1.4,1.3,2.8c1.9,0.8,3.2,1,3.9,0.3c0.2-0.2,0.3-0.5,0.3-0.8c0-0.3-0.1-0.6-0.4-0.9
			c-0.3-0.4-0.7-0.8-1.3-1.2c-1.4-1.3-2.4-2.1-2.7-2.6L64.3,172.8z M63.3,175.9c-1-2.1-1.9-3.7-2.8-4.7c-0.5-0.5-1-0.9-1.5-1
			c-0.3-0.1-0.6,0-0.8,0.2c-0.2,0.2-0.3,0.5-0.3,0.8c0.1,0.5,0.4,1.2,0.9,1.8C59.8,174.1,61.2,175,63.3,175.9z"/>
		<path class="st13" d="M81.3,179.2l5.6-0.9l0.3,0.3l-2.5,2.6l1.9,1.8l-1,1.1l-1.9-1.8l-5.8,6.6l0.4,1.8l1,0.1l0,0.5l-3.6-0.2
			c-0.1-1.4-0.4-2.7-1.1-3.8l0.2-0.2c0.4,0.1,0.7,0,1-0.1c0.3-0.1,0.7-0.4,1.1-0.9l4.9-5.6l-0.9-0.8L81.3,179.2z"/>
		<path class="st13" d="M95.2,188.5l0.3,0.4c-0.8,0.4-1.3,0.7-1.6,1c-0.3,0.3-0.6,0.7-0.9,1.3l-2.8,4.8c-0.5,0.8-0.7,1.3-0.7,1.6
			c0,0.3,0.1,0.5,0.3,0.6c0.1,0.1,0.2,0.1,0.3,0.1c0.1,0,0.3,0,0.7-0.1l0,0.5l-3.7,0.6c-0.3-0.8-0.4-1.4-0.4-1.9
			c0-0.5,0.2-1,0.6-1.7l-4.9,0.6c-0.6-1.8-0.7-3.3-0.1-4.3c0.4-0.7,0.9-1.2,1.5-1.7c0.8-0.6,2-1.1,3.5-1.6l0.4-3.7l0.3-0.2
			c0.3,0.2,0.5,0.4,0.6,0.4c0.9,0.5,1.8,0.7,2.9,0.4c0.3,0.6,0.8,1.3,1.3,1.9c0.5,0.6,0.9,1,1.3,1.2c0.2,0.1,0.3,0.1,0.4,0.1
			C94.6,188.7,94.9,188.7,95.2,188.5z M91.2,188.9l-3.1-3.5l-0.4,3.8l1.7,2.7L91.2,188.9z M89.2,192.3l-1.9-2.9
			c-0.9,0.7-1.6,1.4-2,2c-0.7,1.2-0.8,2.6-0.2,4l2.5-0.4L89.2,192.3z"/>
		<path class="st13" d="M97.6,190.9l5.1-2.5l0.3,0.2l-1.7,3.2l2.3,1.2l-0.6,1.3l-2.3-1.2l-3.8,8l0.8,1.6l1-0.2l0.1,0.5l-3.5,0.8
			c-0.4-1.3-1.1-2.5-2.1-3.3l0.1-0.2c0.4,0,0.7-0.2,0.9-0.4c0.3-0.2,0.5-0.6,0.8-1.2l3.2-6.8l-1.1-0.5L97.6,190.9z"/>
		<path class="st13" d="M111,195.1l1.9,5.3l-6.7,1.9l-0.8,2.3l2.4,2.2l2.3-0.6l0.1,0.5l-4.9,1.3c-0.6-0.7-1.2-1.3-1.6-1.7
			c-0.4-0.4-1.1-0.9-2-1.4l0.1-0.3c0.3-0.1,0.6-0.2,0.7-0.4c0.2-0.2,0.4-0.7,0.7-1.5l2.5-7.1c0.8,0,1.6,0,2.1-0.1
			C108.4,195.4,109.4,195.3,111,195.1z M108.7,195.9l-0.2,0l-2,5.6l4-1.1L108.7,195.9z"/>
		<path class="st13" d="M131.4,200.7l-0.5,9.9c-1.3,0.5-2.2,0.9-2.8,1.2c-0.5,0.2-0.9,0.5-1.3,0.9c-1.2-0.8-2.2-1.4-3-1.8
			c-0.6-0.3-1.3-0.4-2.1-0.5l-0.1-0.3c0.3-0.3,0.5-0.5,0.6-0.7c0.1-0.3,0.2-0.8,0.3-1.5l0.4-7.2c1.6-0.5,3-1.1,4.1-2
			C128.2,199.4,129.6,200.2,131.4,200.7z M125.1,209l3.3,1.6l0.4-8.4c-1-0.6-1.7-0.9-2.2-1.1c-0.3-0.1-0.7-0.3-1.1-0.4L125.1,209z"
			/>
		<path class="st13" d="M140.4,194.3l-0.3,2.2l-2.4-0.4l0.2,3.2l2-0.1l0.1,1.5l-2,0.1l0.5,8.8l1.5,1l0.9-0.9l0.3,0.4l-2.8,2.6
			c-1.1-0.9-2.2-1.5-3.3-1.8l-0.1-0.3c0.3-0.2,0.5-0.4,0.6-0.7c0.2-0.4,0.3-0.8,0.2-1.3l-0.4-7.7l-1.2,0.1l-0.1-1.5l1.2-0.1
			l-0.2-3.2c1.2-1,2.2-1.8,2.8-2.4L140.4,194.3z"/>
		<path class="st13" d="M166.3,204.7c-1.4,2.1-3,3.5-4.8,4.2c-1.3,0.5-2.7,0.6-4.2,0.4c-1.5-0.2-2.8-0.8-3.9-1.7
			c-1.1-1-1.9-2.2-2.4-3.6c-0.3-0.8-0.5-1.7-0.6-2.5c-0.1-0.8-0.1-1.8-0.1-3c0.6-0.7,1.4-1.6,2.2-2.7c0.4-0.6,1.5-2.1,3.3-4.4
			c0.4-0.5,0.8-1,1.2-1.7c1.4-0.4,2.6-0.6,3.5-0.6c1.3-0.1,2.5,0.1,3.7,0.5c1.2,0.4,2.1,1,3,1.7c0.8,0.8,1.5,1.8,1.9,2.9
			c0.4,1.1,0.5,2.1,0.3,3.2c-0.2,1.6-0.8,3.3-1.7,5l4,1.2l0.5-0.9l0.5,0.3l-1.7,3.2L166.3,204.7z M157,192.4
			c-0.6,0.2-1.1,0.3-1.6,0.5l2.6,7.3c0.3,0.8,0.4,1.3,0.4,1.7c0,0.3,0,0.7-0.2,1.1c-0.1,0.4-0.6,1.4-1.5,3.1
			c0.9,0.4,1.8,0.6,2.6,0.7c0.8,0,1.7-0.1,2.7-0.4L157,192.4z M158.7,195.5c0.8,0.3,1.4,0.5,2,0.5c0.6,0,1.2-0.1,1.8-0.3
			c0.6-0.2,1-0.5,1.4-0.9c0.4-0.4,0.8-1,1.1-1.7c-0.7-0.4-1.2-0.7-1.8-0.9c-0.9-0.3-1.8-0.4-2.8-0.4c-0.9,0-1.9,0.1-3,0.4
			L158.7,195.5z M153.5,195.4c-0.5,0.8-0.8,1.4-1,1.9c-0.2,0.6-0.4,1.3-0.4,2.1c0,0.8,0.1,1.6,0.4,2.4c0.6,1.7,1.8,3.1,3.7,4.2
			c0.2-0.5,0.4-0.9,0.3-1.3c0-0.4-0.2-1.1-0.6-2.1L153.5,195.4z M160.5,200.6c0.4-0.8,0.7-1.4,1.2-1.8c0.4-0.4,0.9-0.7,1.6-1
			c0.7-0.3,1.3-0.4,2-0.3c0.6,0,1.4,0.3,2.2,0.6c-0.1-0.9-0.2-1.7-0.4-2.3c-0.2-0.5-0.4-1-0.6-1.4c-0.2-0.3-0.4-0.6-0.8-1
			c-0.5,0.8-1,1.5-1.4,1.9c-0.4,0.4-1,0.7-1.6,1c-0.6,0.2-1.1,0.3-1.7,0.3c-0.5,0-1.2-0.2-2-0.4L160.5,200.6z M162.4,206.2
			c1-0.4,1.7-0.9,2.3-1.4c0.8-0.8,1.4-1.7,1.9-2.7c0.4-1,0.7-2.1,0.8-3.3c-1.5-0.7-2.8-0.8-3.9-0.3c-0.7,0.3-1.2,0.7-1.7,1.3
			c-0.4,0.4-0.7,1.1-0.9,1.9L162.4,206.2z"/>
		<path class="st13" d="M177.3,186.3l0.5-0.1c0,0.9,0,1.5,0.1,1.9c0.1,0.4,0.3,0.9,0.6,1.5l2.8,4.8c0.5,0.8,0.8,1.3,1,1.4
			c0.2,0.1,0.5,0.1,0.6,0c0.1-0.1,0.2-0.1,0.2-0.2c0-0.1,0.1-0.3,0.3-0.7l0.5,0.2l-1.2,3.6c-0.8-0.1-1.4-0.3-1.8-0.5
			c-0.4-0.2-0.8-0.7-1.2-1.3l-1.8,4.8c-1.9-0.3-3.1-0.9-3.7-2c-0.4-0.7-0.6-1.4-0.7-2.2c-0.1-1,0-2.3,0.2-3.9l-3-2.1l0-0.4
			c0.3-0.1,0.5-0.3,0.7-0.3c0.9-0.5,1.4-1.4,1.7-2.5c0.7,0,1.5-0.1,2.2-0.3c0.7-0.2,1.3-0.4,1.6-0.6c0.2-0.1,0.3-0.2,0.3-0.3
			C177.3,187,177.3,186.7,177.3,186.3z M175.8,190.2l-4.4,1.1l3,2.1l3.1-0.3L175.8,190.2z M177.8,193.6l-3.4,0.4
			c0.1,1.2,0.4,2.1,0.8,2.8c0.7,1.2,1.8,1.9,3.4,2l0.9-2.4L177.8,193.6z"/>
		<path class="st13" d="M180.3,185.3l0.2-5.8l0.3-0.2l2,3l2-1.6l0.9,1.2l-2,1.6l5.2,7.1l1.8,0l0.3-1l0.5,0.1l-0.9,3.6
			c-1.4-0.2-2.6-0.1-3.8,0.4l-0.2-0.2c0.1-0.4,0.2-0.7,0.1-1c-0.1-0.4-0.3-0.8-0.7-1.3l-4.4-6l-1,0.7L180.3,185.3z"/>
		<path class="st13" d="M193.4,172.8l0.5-0.2c0.1,0.9,0.3,1.5,0.5,1.9c0.2,0.4,0.5,0.8,0.9,1.3l3.6,4.2c0.6,0.7,1,1.1,1.3,1.2
			c0.3,0.1,0.5,0,0.6-0.1c0.1-0.1,0.1-0.2,0.2-0.3c0-0.1,0.1-0.3,0.1-0.8l0.5,0.1l-0.5,3.8c-0.8,0.1-1.4,0-1.9-0.1
			c-0.4-0.2-0.9-0.5-1.4-1.1l-0.8,5c-1.9,0.1-3.2-0.3-4-1.2c-0.5-0.6-0.9-1.3-1.1-2c-0.3-1-0.4-2.3-0.5-3.9l-3.3-1.5l-0.1-0.4
			c0.3-0.2,0.5-0.4,0.6-0.5c0.7-0.7,1.1-1.6,1.2-2.8c0.7-0.1,1.4-0.4,2.1-0.7c0.7-0.3,1.2-0.6,1.5-0.9c0.1-0.1,0.2-0.2,0.2-0.3
			C193.4,173.4,193.4,173.2,193.4,172.8z M192.6,176.9l-4.1,2l3.4,1.5l3-0.9L192.6,176.9z M195.1,179.8l-3.3,1
			c0.3,1.1,0.8,2,1.3,2.6c0.9,1.1,2.1,1.5,3.7,1.3l0.4-2.5L195.1,179.8z"/>
		<path class="st13" d="M198.4,164.7l3-0.2l0.2,2.7l-2.6,0.1l0.2,1.8l5.9,4.6l1.7-0.6l0-1.7l0.5,0l0.1,4.3c-0.9,0.2-1.6,0.4-2.1,0.6
			c-0.5,0.2-1,0.5-1.4,0.9l-0.2-0.2c0-0.5,0-0.8-0.2-1.1c-0.2-0.3-0.5-0.6-1.1-1.1l-4.2-3.2c-0.5-0.4-0.9-0.6-1.2-0.6
			c-0.3,0-0.4,0-0.6,0.2c-0.1,0.2-0.1,0.5-0.1,1l-0.5,0l-0.2-3.7c0.9-0.3,1.6-0.4,2-0.3c0.3,0,0.6,0.2,1,0.5L198.4,164.7z"/>
	</g>
	<g>
		<g>
			<ellipse class="st2" cx="121.6" cy="29.6" rx="2.3" ry="2.3"/>
			<path class="st2" d="M121.6,29.6"/>
		</g>
		<g>
			<circle class="st2" cx="126.9" cy="28.6" r="2.3"/>
			<path class="st2" d="M126.9,28.6"/>
		</g>
		<ellipse class="st2" cx="142.7" cy="31.9" rx="2.3" ry="2.3"/>
		<path class="st2" d="M145.8,31.8c0-1.3,1-2.3,2.4-2.3c1.3,0,2.3,1.1,2.3,2.3c0,1.3-1.1,2.3-2.3,2.3
			C146.8,34.1,145.8,33.1,145.8,31.8z"/>
		<path class="st2" d="M200,73.8l5.9,0.3c0,0,0.1,1,1,3c0.9,2,1.9,4,3.7,7.8c1.9,4.2,4.1,9.6,4.7,12.1c0.4,1.9,0.1,4.4-1.4,6
			c-2.1,2.4-7.3,3.6-7.3,3.6s-2.2-8.7-3.7-12.5c-3.3-8.7-9-16.5-9-16.5l3.4-2.8c0,0,6.7,10.9,7.9,13.6c2.3,5.4,4,11.6,4,11.6
			s1.5,0.1,1.6-1.3c0.2-2.2-2.6-9-4.8-13.8C203.8,80,200,73.8,200,73.8z"/>
		<path class="st2" d="M196.4,50.6c-2.8-0.3-3.6-0.8-3.6-0.8l-0.2,1.7l-8.4,9.6c0,0-8.1-6.4-18.3-11.1c-3.2-1.5-16.1-5.1-16.1-5.1
			l0.6-10.3c0,0-1.6,0.9-2.7,1.3c-1.1,0.4-2.5,0.5-5,0.7c-3,0.3-3.7,4.3-3.7,4.3v7.2c0,0,11.8,0.5,22.9,5
			c12.1,5,22.9,14.3,22.9,14.3l14.2-16.4C199.1,51.1,198.6,50.9,196.4,50.6z M143.5,44c-0.2,0-0.2-1.4,0.1-2.1
			c0.7-1.6,1.9-0.9,1.9-0.9l0.1,3.2C145.6,44.2,144.4,44,143.5,44z"/>
		<path class="st2" d="M199.8,65.3c-0.9-0.6-3.3-1.6-4.5-2.2c-1.8-0.9-3.9,0.7-3.9,0.7s-4,3.9-4.3,4.9c-0.3,1,2.8,3.7,3.1,4.1
			c0.4,0.4-0.6,1.8-1.8,2.3c-1.2,0.4-1.9-0.1-2.6-1c-0.6-0.9-1.2-3.2-1.8-3.9c-0.5-0.8-1.2-1.5-2.1-1.8c-0.9-0.4-2.6,0.1-2.6,0.1
			s-0.8,1.1,0.6,1.8c0.5,0.4,1.8,0.5,2.1,0.6c0.7,0.2,0.5,0.3,1.2,1.1c0.8,1,0.2,0.9,1,2.9c0.8,2,1.5,3.4,4,3.6
			c2.5,0.2,4.9-2.5,6.8-4.1c1.9-1.6,8.3-7.7,8.3-7.7S201.3,66.3,199.8,65.3z M193.6,69.8c0,0-1.4-0.4-1.1-1.2
			c0.1-0.4,0.7-0.8,1.4-0.8c0.7,0,1.6,0.5,1.6,0.5L193.6,69.8z"/>
		<path class="st2" d="M131.2,30.6c-3.9,0.8-5.5,1.2-6.5,1.7c-2,0.8-1.7,4.8-1.7,5.8c-0.1,1.1,0.3,3.6,0.9,3.8
			c0.5,0.2,5.1-0.2,5.1-0.2l0.1,2.2c0,0-5,0.4-8.3,1c-3.1,0.6-6.5,1.4-6.5,1.4s-1.9-2.6-3.6-3.4c-1.7-0.8-4.8-0.5-6.6,0.1
			c-2.9,0.9-9.8,4.4-12.7,6.1c-2.9,1.7-10.1,7.2-10.1,7.2s-3.2-3.9-4.8-5.4C75,49.4,74,48.6,74,48.6l-1.4,7c0,0,1.4-0.3,2.4,0.2
			c0.5,0.2,5.4,5.9,6.3,6.9c0.8,1.1,0.1,2.2-0.3,2.5c-3.7,3.5-7.9,9.3-10.1,12c-2.6,3.3-6.1,10.3-7,12.5c-0.3,0.6-0.5-0.2-1.9,0.1
			c-1.4,0.2-3.6,0.9-3.6,0.9l3.4,4.5c0,0,1.5-1,3.4-1.3c1.5-0.2,2.7,0.2,3.2,0.8c0.5,0.8,1.3,1.5,1.1,2.9c-0.2,1-0.6,2-1.7,2.9
			c-1.1,1-1.1,1-1.3,2.4c-0.1,0.6,0.4,1.9,1.4,1.6c1.8,0.1,1-2.4,1-2.4s-0.2-0.3,0.2-1.5c0.3-1.2,1.9-1.2,2.5-2.6
			c0.6-1.4,0.6-3.7,0.3-4.8c-0.3-1.1-1.6-1.5-2.3-2.1c-0.8-0.5-0.5-1.4-0.5-1.4s1.3-3.1,4.9-9c3.6-5.9,9.5-11.2,12.1-13.8
			c9.3-9.1,22.3-14.3,26.2-15.5c10.3-3.3,21-3.5,21-3.5V29.5C133.2,29.5,132.1,30.4,131.2,30.6z M127.3,38.1c0,0-0.2-1.4-0.1-1.7
			c0.2-0.8,1.6-0.7,1.6-0.7l0,2.5H127.3z M99.1,52.4C91.7,56.2,86.2,61,86.2,61s-2.5-1.4-1.1-2.5c1.4-1.1,5.8-4.1,8.8-6.1
			c4.7-3.2,10.3-5.3,10.3-5.3s2.2-0.8,3.4-0.5c0.9,0.2,1.6,1.3,1.6,1.3S102.9,50.4,99.1,52.4z"/>
	</g>
</g>
</svg>
